<mxfile host="app.diagrams.net" modified="2024-07-06T14:51:02.907Z" agent="Mozilla/5.0 (X11; Linux x86_64) AppleWebKit/537.36 (KHTML, like Gecko) Chrome/126.0.0.0 Safari/537.36 Edg/126.0.0.0" etag="8MQ66VGekME0ndxXxxby" version="24.6.4" type="device">
  <diagram name="Page-1" id="7f9mdwnvhOM4WDlaBOpa">
    <mxGraphModel dx="1426" dy="1863" grid="1" gridSize="10" guides="1" tooltips="1" connect="1" arrows="1" fold="1" page="1" pageScale="1" pageWidth="850" pageHeight="1100" math="0" shadow="0">
      <root>
        <mxCell id="0" />
        <mxCell id="1" parent="0" />
        <mxCell id="8bza0nScmJODH7dpEfvd-1" value="" style="rounded=0;whiteSpace=wrap;html=1;" vertex="1" parent="1">
          <mxGeometry x="190" y="-30" width="470" height="560" as="geometry" />
        </mxCell>
        <mxCell id="8bza0nScmJODH7dpEfvd-2" style="edgeStyle=none;rounded=0;orthogonalLoop=1;jettySize=auto;html=1;exitX=0.5;exitY=0.5;exitDx=0;exitDy=0;exitPerimeter=0;entryX=0;entryY=0.5;entryDx=0;entryDy=0;" edge="1" parent="1" source="8bza0nScmJODH7dpEfvd-7" target="8bza0nScmJODH7dpEfvd-16">
          <mxGeometry relative="1" as="geometry" />
        </mxCell>
        <mxCell id="8bza0nScmJODH7dpEfvd-3" style="edgeStyle=none;rounded=0;orthogonalLoop=1;jettySize=auto;html=1;exitX=0.5;exitY=0.5;exitDx=0;exitDy=0;exitPerimeter=0;entryX=0;entryY=0.5;entryDx=0;entryDy=0;" edge="1" parent="1" source="8bza0nScmJODH7dpEfvd-7" target="8bza0nScmJODH7dpEfvd-11">
          <mxGeometry relative="1" as="geometry" />
        </mxCell>
        <mxCell id="8bza0nScmJODH7dpEfvd-4" style="edgeStyle=none;rounded=0;orthogonalLoop=1;jettySize=auto;html=1;exitX=0.5;exitY=0.5;exitDx=0;exitDy=0;exitPerimeter=0;entryX=0;entryY=0.5;entryDx=0;entryDy=0;" edge="1" parent="1" source="8bza0nScmJODH7dpEfvd-7" target="8bza0nScmJODH7dpEfvd-12">
          <mxGeometry relative="1" as="geometry" />
        </mxCell>
        <mxCell id="8bza0nScmJODH7dpEfvd-5" style="edgeStyle=none;rounded=0;orthogonalLoop=1;jettySize=auto;html=1;exitX=0.5;exitY=0.5;exitDx=0;exitDy=0;exitPerimeter=0;entryX=0;entryY=0.5;entryDx=0;entryDy=0;" edge="1" parent="1" source="8bza0nScmJODH7dpEfvd-7" target="8bza0nScmJODH7dpEfvd-9">
          <mxGeometry relative="1" as="geometry" />
        </mxCell>
        <mxCell id="8bza0nScmJODH7dpEfvd-6" style="edgeStyle=none;rounded=0;orthogonalLoop=1;jettySize=auto;html=1;exitX=0.5;exitY=0.5;exitDx=0;exitDy=0;exitPerimeter=0;entryX=0;entryY=0.5;entryDx=0;entryDy=0;" edge="1" parent="1" source="8bza0nScmJODH7dpEfvd-7" target="8bza0nScmJODH7dpEfvd-13">
          <mxGeometry relative="1" as="geometry" />
        </mxCell>
        <mxCell id="8bza0nScmJODH7dpEfvd-7" value="Guest" style="shape=umlActor;verticalLabelPosition=bottom;verticalAlign=top;html=1;outlineConnect=0;" vertex="1" parent="1">
          <mxGeometry x="130" y="260" width="30" height="60" as="geometry" />
        </mxCell>
        <mxCell id="8bza0nScmJODH7dpEfvd-8" value="&amp;lt;&amp;lt;extends&amp;gt;&amp;gt;" style="edgeStyle=orthogonalEdgeStyle;rounded=0;orthogonalLoop=1;jettySize=auto;html=1;dashed=1;entryX=1;entryY=0.5;entryDx=0;entryDy=0;" edge="1" parent="1" source="8bza0nScmJODH7dpEfvd-19" target="8bza0nScmJODH7dpEfvd-9">
          <mxGeometry relative="1" as="geometry" />
        </mxCell>
        <mxCell id="8bza0nScmJODH7dpEfvd-9" value="View product listing" style="ellipse;whiteSpace=wrap;html=1;" vertex="1" parent="1">
          <mxGeometry x="210" y="340" width="120" height="80" as="geometry" />
        </mxCell>
        <mxCell id="8bza0nScmJODH7dpEfvd-10" value="&amp;lt;&amp;lt;extends&amp;gt;&amp;gt;" style="rounded=0;orthogonalLoop=1;jettySize=auto;html=1;exitX=0;exitY=0.5;exitDx=0;exitDy=0;entryX=1;entryY=0.5;entryDx=0;entryDy=0;dashed=1;" edge="1" parent="1" source="8bza0nScmJODH7dpEfvd-18" target="8bza0nScmJODH7dpEfvd-11">
          <mxGeometry relative="1" as="geometry" />
        </mxCell>
        <mxCell id="8bza0nScmJODH7dpEfvd-11" value="View post listing" style="ellipse;whiteSpace=wrap;html=1;" vertex="1" parent="1">
          <mxGeometry x="210" y="160" width="120" height="80" as="geometry" />
        </mxCell>
        <mxCell id="8bza0nScmJODH7dpEfvd-12" value="View homepage" style="ellipse;whiteSpace=wrap;html=1;" vertex="1" parent="1">
          <mxGeometry x="210" y="250" width="120" height="80" as="geometry" />
        </mxCell>
        <mxCell id="8bza0nScmJODH7dpEfvd-13" value="Register new account" style="ellipse;whiteSpace=wrap;html=1;" vertex="1" parent="1">
          <mxGeometry x="210" y="430" width="120" height="80" as="geometry" />
        </mxCell>
        <mxCell id="8bza0nScmJODH7dpEfvd-14" value="&amp;lt;&amp;lt;extends&amp;gt;&amp;gt;" style="edgeStyle=none;rounded=0;orthogonalLoop=1;jettySize=auto;html=1;exitX=0;exitY=0.5;exitDx=0;exitDy=0;entryX=1;entryY=0.5;entryDx=0;entryDy=0;dashed=1;" edge="1" parent="1" source="8bza0nScmJODH7dpEfvd-17" target="8bza0nScmJODH7dpEfvd-16">
          <mxGeometry x="-0.005" relative="1" as="geometry">
            <mxPoint as="offset" />
          </mxGeometry>
        </mxCell>
        <mxCell id="8bza0nScmJODH7dpEfvd-15" value="&amp;lt;&amp;lt;extends&amp;gt;&amp;gt;" style="edgeStyle=none;rounded=0;orthogonalLoop=1;jettySize=auto;html=1;exitX=0;exitY=0.5;exitDx=0;exitDy=0;entryX=1;entryY=0.5;entryDx=0;entryDy=0;dashed=1;" edge="1" parent="1" source="8bza0nScmJODH7dpEfvd-20" target="8bza0nScmJODH7dpEfvd-16">
          <mxGeometry relative="1" as="geometry" />
        </mxCell>
        <mxCell id="8bza0nScmJODH7dpEfvd-16" value="View cart" style="ellipse;whiteSpace=wrap;html=1;" vertex="1" parent="1">
          <mxGeometry x="210" y="70" width="120" height="80" as="geometry" />
        </mxCell>
        <mxCell id="8bza0nScmJODH7dpEfvd-17" value="Cart checkout" style="ellipse;whiteSpace=wrap;html=1;" vertex="1" parent="1">
          <mxGeometry x="370" y="-20" width="120" height="80" as="geometry" />
        </mxCell>
        <mxCell id="8bza0nScmJODH7dpEfvd-18" value="View post details" style="ellipse;whiteSpace=wrap;html=1;" vertex="1" parent="1">
          <mxGeometry x="480" y="140" width="120" height="80" as="geometry" />
        </mxCell>
        <mxCell id="8bza0nScmJODH7dpEfvd-19" value="View product details" style="ellipse;whiteSpace=wrap;html=1;" vertex="1" parent="1">
          <mxGeometry x="440" y="340" width="120" height="80" as="geometry" />
        </mxCell>
        <mxCell id="8bza0nScmJODH7dpEfvd-20" value="Update cart" style="ellipse;whiteSpace=wrap;html=1;" vertex="1" parent="1">
          <mxGeometry x="460" y="50" width="120" height="80" as="geometry" />
        </mxCell>
        <mxCell id="8bza0nScmJODH7dpEfvd-21" value="&amp;lt;&amp;lt;extends&amp;gt;&amp;gt;" style="rounded=0;orthogonalLoop=1;jettySize=auto;html=1;exitX=0;exitY=0.5;exitDx=0;exitDy=0;entryX=1;entryY=0.5;entryDx=0;entryDy=0;dashed=1;" edge="1" parent="1" source="8bza0nScmJODH7dpEfvd-22" target="8bza0nScmJODH7dpEfvd-12">
          <mxGeometry relative="1" as="geometry" />
        </mxCell>
        <mxCell id="8bza0nScmJODH7dpEfvd-22" value="Search product" style="ellipse;whiteSpace=wrap;html=1;" vertex="1" parent="1">
          <mxGeometry x="380" y="200" width="120" height="80" as="geometry" />
        </mxCell>
        <mxCell id="8bza0nScmJODH7dpEfvd-23" value="&amp;lt;&amp;lt;extends&amp;gt;&amp;gt;" style="edgeStyle=none;rounded=0;orthogonalLoop=1;jettySize=auto;html=1;exitX=0;exitY=0.5;exitDx=0;exitDy=0;entryX=1;entryY=0.5;entryDx=0;entryDy=0;dashed=1;" edge="1" parent="1" source="8bza0nScmJODH7dpEfvd-24" target="8bza0nScmJODH7dpEfvd-12">
          <mxGeometry relative="1" as="geometry" />
        </mxCell>
        <mxCell id="8bza0nScmJODH7dpEfvd-24" value="Search post" style="ellipse;whiteSpace=wrap;html=1;" vertex="1" parent="1">
          <mxGeometry x="520" y="260" width="120" height="80" as="geometry" />
        </mxCell>
      </root>
    </mxGraphModel>
  </diagram>
</mxfile>
